# xmcd
#
# Track frame offsets:
#	150
#	12955
#	21754
#	35494
#	47670
#	59919
#	72848
#	84081
#	99065
#	111851
#	126466
#	140059
#	153266
#	166779
#	175975
#	189377
#	200066
#	215994
#
# Disc length: 3020 seconds
#
# Revision: 1
# Processed by: cddbd v1.5.2PL0 Copyright (c) Steve Scherf et al.
# Submitted via: audiograbber 1.83.01
#
DISCID=000bca12
DTITLE=Charles Aznavour - Je T'aime Comme Ca
DYEAR=1900
DGENRE=
TTITLE0=Je T'aime Comme Ca
TTITLE1=Si J'avais Un Piano
TTITLE2=Ca
TTITLE3=Me Que Me Que
TTITLE4=A Te Regarder
TTITLE5=Oublie Loulou
TTITLE6=Toi
TTITLE7=J'ai Bu
TTITLE8=Ah!
TTITLE9=La Bagarre!..
TTITLE10=Viens
TTITLE11=Couches Dans Le Foin
TTITLE12=Et Bailler Et Dormir
TTITLE13=Quand Elle Chante
TTITLE14=Quelque Part Dans La Nuit
TTITLE15=Intoxique
TTITLE16=Je Voudrais
TTITLE17=Monsieur Jonas
EXTD=
EXTT0=
EXTT1=
EXTT2=
EXTT3=
EXTT4=
EXTT5=
EXTT6=
EXTT7=
EXTT8=
EXTT9=
EXTT10=
EXTT11=
EXTT12=
EXTT13=
EXTT14=
EXTT15=
EXTT16=
EXTT17=
PLAYORDER=
